<?xml version="1.0" encoding="UTF-8"?>
<svg id="Layer_1" data-name="Layer 1" xmlns="http://www.w3.org/2000/svg" viewBox="0 0 482 482">
  <defs>
    <style>
      .cls-1 {
        fill: #fff;
      }

      .cls-1, .cls-2 {
        stroke-width: 0px;
      }

      .cls-2 {
        fill: #68a030;
      }
    </style>
  </defs>
  <rect class="cls-2" width="482" height="482"/>
  <path class="cls-1" d="m176.5586,46.6421h60.4873l-121,184.8267h-60.4873L176.5586,46.6421Z"/>
  <path class="cls-1" d="m255.5049,139.584v-.5283c0-53.8643,41.4541-96.1104,97.4307-96.1104,37.7568,0,62.0488,15.8428,78.4189,38.5498l-38.5498,29.8359c-10.5615-13.2012-22.707-21.6504-40.3975-21.6504-25.876,0-44.0947,21.915-44.0947,48.8467v.5283c0,27.7236,18.2188,49.375,44.0947,49.375,19.2744,0,30.6279-8.9775,41.7178-22.4434l38.5498,27.46c-17.4268,24.0273-40.9258,41.7178-81.8525,41.7178-52.8066,0-95.3174-40.3975-95.3174-95.5811Z"/>
  <path class="cls-1" d="m53.2529,254.6426h54.1274l44.0942,71.5537,44.0947-71.5537h54.1279v184.8262h-50.9595v-106.1436l-47.2632,72.3467h-1.0557l-46.999-71.8184v105.6152h-50.167v-184.8262Z"/>
  <path class="cls-1" d="m268.4434,412.0088l28.5166-34.0605c18.2188,14.5215,38.5498,22.1787,59.9365,22.1787,13.7305,0,21.123-4.7529,21.123-12.6738v-.5283c0-7.6572-6.0723-11.8818-31.1562-17.6904-39.3418-8.9766-69.7061-20.0664-69.7061-58.0879v-.5283c0-34.3252,27.1963-59.1445,71.5537-59.1445,31.4209,0,55.9766,8.4492,76.043,24.5557l-25.6113,36.1729c-16.8984-11.8818-35.3809-18.2188-51.752-18.2188-12.4092,0-18.4824,5.2812-18.4824,11.8818v.5283c0,8.4492,6.3369,12.1455,31.9492,17.9541,42.5098,9.2422,68.9141,22.9717,68.9141,57.5605v.5283c0,37.7578-29.8369,60.2002-74.7227,60.2002-32.7412,0-63.8984-10.2969-86.6055-30.6279Z"/>
</svg>